#!OML:ASF F:\VICON\USERDATA\INSTALL\rory3\rory3.ASF
:FULLY-SPECIFIED
:DEGREES
18
root -0.706011999999999 18.8861 -23.189199999999985 4.12885 3.7321899999999966 -5.418010000000002
lfemur -35.54719999999998 -1.0140999999999991 -17.1764
ltibia 49.19140000000001
lfoot -0.31200200000000006 -2.2611799999999924
ltoes -26.455100000000016
rfemur 11.316599999999973 5.471270000000009 32.593999999999994
rtibia 31.60930000000007
rfoot 27.370700000000024 -6.43856
rtoes 10.996499999999983
lowerback nan 2.310390000000002 5.425379999999995
upperback -2.2465599999999992 4.095170000000002 1.83557
thorax -9.026519999999998 1.7438499999999992 -1.8874600000000015
lowerneck -16.187399999999997 -5.21796 -1.88949
upperneck 16.3913 -7.001600000000003 1.6567200000000002
head 7.85296 -3.2824799999999987 0.05247710000000094
lclavicle -6.6841299999999834e-15 -2.345660000000002e-14
lhumerus -71.4682 -2.8728000000000176 95.6786
lradius 102.75300000000001
lwrist 35.1595
lhand -23.7238 0.6866320000000032
lfingers nan
lthumb 2.74406 30.6487
rclavicle -6.6841299999999834e-15 -2.345660000000002e-14
rhumerus -42.919300000000014 16.19410000000002 -96.2348
rradius 117.852
rwrist -9.86628
rhand -15.270999999999999 nan
rfingers nan
rthumb 10.9034 17.473299999999984
19
root -0.6959380000000008 18.9249 -22.663300000000035 4.06275 3.9039300000000017 -5.545619999999998
lfemur -34.70800000000003 -1.7892600000000007 -16.929500000000008
ltibia 44.278300000000016
lfoot 1.1932800000000001 -3.4791200000000044
ltoes -24.880999999999997
rfemur 11.850999999999978 6.352470000000013 33.1845
rtibia 32.87539999999994
rfoot 27.640900000000048 -6.2195
rtoes 18.25309999999998
lowerback nan 2.330870000000003 5.4631000000000025
upperback -2.548840000000001 4.153210000000002 1.9357700000000002
thorax -9.33818 1.75863 -1.817859999999995
lowerneck -15.696800000000005 -5.27305 -2.03439
upperneck 16.6211 -7.067179999999997 1.7022799999999996
head 7.85196 -3.3208400000000022 0.09256910000000096
lclavicle -3.550789999999994e-14 -3.8564199999999965e-14
lhumerus -72.6308 -2.30462999999998 95.5294
lradius 102.91199999999999
lwrist 34.7212
lhand -23.8489 0.4356319999999978
lfingers nan
lthumb 2.6232700000000007 30.3992
rclavicle -3.550789999999994e-14 -3.8564199999999965e-14
rhumerus -43.876899999999985 16.965600000000016 -96.7328
rradius 117.99399999999999
rwrist -9.07093
rhand -16.0827 nan
rfingers nan
rthumb 10.1203 16.35799999999999
20
root -0.6875249999999995 18.9529 -22.14789999999998 3.90561 4.231750000000004 -5.681599999999992
lfemur -33.84970000000003 -2.588709999999997 -16.688600000000005
ltibia 39.585199999999986
lfoot 2.284209999999998 -4.604069999999998
ltoes -24.9105
rfemur 12.158700000000007 6.886779999999993 33.7432
rtibia 34.603299999999976
rfoot 27.453399999999952 -5.717640000000001
rtoes 20.448799999999956
lowerback nan 2.295840000000002 5.738619999999999
upperback -1.7358600000000006 4.103430000000001 1.86548
thorax -8.507509999999998 1.7573100000000017 -2.0235600000000007
lowerneck -20.2098 -5.422410000000001 -1.6169600000000006
upperneck 18.139599999999994 -7.302380000000005 1.4436799999999992
head 9.137990000000002 -3.359720000000001 -0.23809600000000097
lclavicle 4.472660000000007e-16 1.0137999999999984e-14
lhumerus -71.01519999999998 -2.3679400000000133 95.2573
lradius 102.759
lwrist 34.3436
lhand -24.4902 0.6489779999999992
lfingers nan
lthumb 2.0039099999999994 30.6193
rclavicle 4.472660000000007e-16 1.0137999999999984e-14
rhumerus -41.9169 17.649399999999986 -96.4259
rradius 117.853
rwrist -8.953030000000002
rhand -18.1336 nan
rfingers nan
rthumb 8.141370000000002 12.856499999999999
21
root -0.5193978416019065 18.457716827258864 -15.80613493298724 4.105473905222508 3.813790312153012 -5.164060105641628
lfemur -33.731441872930986 -3.45313791192622 -16.562505239111424
ltibia 35.74143110828621
lfoot 2.9080445098646783 -5.4777103068213915
ltoes -23.90812880803736
rfemur 12.30548210708523 7.276858014846698 34.317481594288765
rtibia 36.67869648900538
rfoot 26.492005384766575 -6.064118708140059
rtoes 21.68111045295445
lowerback nan 2.2222373110888403 5.8812059687215505
upperback -2.750123572069272 4.039397975519987 1.8713025559175427
thorax -10.113986886646822 1.6096085911807625 -1.9760720903532765
lowerneck -17.229357092559695 -5.285310339141523 -1.7726058295261888
upperneck 17.12930754780584 -7.097395616061341 1.631603448896813
head 8.483906920646278 -3.1160072386935016 0.029386014763643442
lclavicle 2.1624190668186167e-14 -1.7761514336573056e-14
lhumerus -72.45329822585119 -2.356259019167384 95.01331375334131
lradius 103.19555712305863
lwrist 34.119956458455896
lhand -24.514782519034636 0.8185041464249128
lfingers nan
lthumb 1.9891053355749817 30.801495312303054
rclavicle 2.1520404479727306e-14 -1.78039317972147e-14
rhumerus -43.6046663507464 17.958059987419723 -97.8944964287652
rradius 118.11159829528239
rwrist -7.826644824368678
rhand -19.735973842215376 nan
rfingers nan
rthumb 6.6276529081340065 11.446876387424146
